<?xml version="1.0" encoding="utf-8"?>
<!-- Generator: Adobe Illustrator 16.0.3, SVG Export Plug-In . SVG Version: 6.00 Build 0)  -->
<!DOCTYPE svg PUBLIC "-//W3C//DTD SVG 1.1//EN" "http://www.w3.org/Graphics/SVG/1.1/DTD/svg11.dtd">
<svg version="1.1" id="Layer_1" xmlns="http://www.w3.org/2000/svg" xmlns:xlink="http://www.w3.org/1999/xlink" x="0px" y="0px"
	 width="202px" height="91.773px" viewBox="0 0 202 91.773" enable-background="new 0 0 202 91.773" xml:space="preserve">
<g>
	<polygon fill="#FFFFFF" points="154.499,27.306 143.653,11.83 117.144,11.83 140.768,45.706 	"/>
	<path fill="#FFFFFF" d="M88.771,10.156c-18.728,0-33.904,15.178-33.904,33.902c0,18.723,15.177,33.907,33.904,33.907
		c18.717,0,33.904-15.185,33.904-33.907C122.675,25.334,107.487,10.156,88.771,10.156z M88.771,55.537
		c-6.344,0-11.484-5.138-11.484-11.479c0-6.338,5.141-11.481,11.484-11.481c6.334,0,11.481,5.144,11.481,11.481
		C100.252,50.399,95.104,55.537,88.771,55.537z"/>
	<path fill="#FFFFFF" d="M47.896,12.668c-4.203-1.176-8.662-1.815-13.011-1.815C16.05,10.853,1.3,25.851,1.3,44.605
		c0,18.328,14.322,32.562,32.642,32.562c3.372,0,9.665-0.499,13.954-1.63l0.104-24.937c-3.377,3.305-6.492,4.823-11.323,4.823
		c-6.289,0-11.736-4.912-11.736-11.277c0-6.291,5.142-11.283,11.423-11.283c4.758,0,8.271,1.973,11.646,5.121L47.896,12.668z"/>
	<path fill="#FFFFFF" d="M198.51,0.953c-23.073,19.037-56.991,63.674-69.228,90.82l22.775-29.888l9.952,14.257h26.763l-22.805-32.5
		L198.51,0.953z"/>
	<path fill="#FFFFFF" d="M188.363,0.953l-69.232,90.82C131.375,64.627,165.296,19.99,188.363,0.953z"/>
	<path fill="#FFFFFF" d="M178.226,0.953l-69.229,90.82C121.236,64.627,155.157,19.99,178.226,0.953z"/>
</g>
<path fill="#FFFFFF" d="M195.785,72.427c0-1.688,1.358-3.058,3.031-3.058c1.675,0,3.033,1.37,3.033,3.058
	c0,1.673-1.358,3.058-3.033,3.058C197.144,75.484,195.785,74.1,195.785,72.427 M195.217,72.427c0,2.008,1.61,3.585,3.6,3.585
	c1.991,0,3.601-1.577,3.601-3.585c0-2.007-1.609-3.615-3.601-3.615C196.827,68.812,195.217,70.42,195.217,72.427 M200.823,74.419
	l-1.075-1.721c0.459-0.159,0.806-0.541,0.806-1.083c0-0.971-0.788-1.273-1.532-1.273h-1.737v4.077h0.964v-1.577h0.568l0.869,1.577
	H200.823z M198.248,72.141v-1.004h0.744c0.236,0,0.584,0.144,0.584,0.479c0,0.317-0.301,0.525-0.584,0.525H198.248z"/>
</svg>
